<svg width="210" height="212" viewBox="0 0 210 212" fill="none" xmlns="http://www.w3.org/2000/svg">
<circle cx="105" cy="105" r="105" fill="white"/>
<mask id="mask0_1796_5342" style="mask-type:alpha" maskUnits="userSpaceOnUse" x="0" y="0" width="210" height="210">
<circle cx="105" cy="105" r="105" fill="white"/>
</mask>
<g mask="url(#mask0_1796_5342)">
<path d="M189.736 211.841H20.2627C20.2627 211.841 22.5375 201.098 25.836 190.354C29.1345 179.611 35.7314 175.087 44.4895 172.825C53.1338 170.563 87.3697 160.046 87.3697 160.046L105 158.689H105.113H105.227L121.151 159.933C121.151 159.933 157.093 170.677 165.737 172.825C174.381 175.087 181.092 179.498 184.391 190.354C187.462 201.098 189.736 211.841 189.736 211.841Z" fill="#E9356E"/>
<path d="M154.363 203.926H133.662C133.207 203.926 132.752 204.265 132.752 204.831V211.842H134.458V205.622H153.339V211.842H155.045V204.717C155.273 204.265 154.818 203.926 154.363 203.926Z" fill="#C4205C"/>
<path d="M103.976 185.718C105.107 185.718 106.023 184.807 106.023 183.683C106.023 182.558 105.107 181.647 103.976 181.647C102.845 181.647 101.929 182.558 101.929 183.683C101.929 184.807 102.845 185.718 103.976 185.718Z" fill="#F5EFFF"/>
<path d="M103.976 196.236C105.107 196.236 106.023 195.324 106.023 194.2C106.023 193.076 105.107 192.165 103.976 192.165C102.845 192.165 101.929 193.076 101.929 194.2C101.929 195.324 102.845 196.236 103.976 196.236Z" fill="#F5EFFF"/>
<path d="M103.976 206.753C105.107 206.753 106.023 205.842 106.023 204.718C106.023 203.594 105.107 202.682 103.976 202.682C102.845 202.682 101.929 203.594 101.929 204.718C101.929 205.842 102.845 206.753 103.976 206.753Z" fill="#F5EFFF"/>
<path d="M105.113 158.577V158.689L105 158.577H105.113Z" fill="#5D46C2"/>
<path d="M104.998 158.577L104.886 158.689V158.577H104.998Z" fill="#5D46C2"/>
<path d="M120.697 164.231C120.697 164.231 116.261 172.374 104.09 172.374C92.2614 172.374 87.2568 163.779 87.2568 163.779L87.9393 157.898L88.053 156.88L89.1904 147.607L118.536 148.399L118.991 151.904L119.104 153.035L120.697 164.231Z" fill="#C95F5D"/>
<path d="M88.053 156.88C88.053 156.88 77.5889 158.577 69.8545 165.249C69.8545 165.249 72.1293 178.368 87.1431 191.373L103.977 172.261C104.09 172.374 92.8301 168.076 88.053 156.88Z" fill="#C4205C"/>
<path d="M119.673 156.88C119.673 156.88 130.137 158.577 137.871 165.249C137.871 165.249 135.596 178.368 120.583 191.373L103.749 172.261C103.635 172.374 114.895 168.076 119.673 156.88Z" fill="#C4205C"/>
<path d="M118.991 152.017C112.394 157.559 101.588 159.708 87.9395 157.898L88.0532 156.88L89.1906 147.607L118.536 148.399L118.991 152.017Z" fill="#19274B"/>
<path d="M78.271 123.631C71.6741 132.679 57.5702 126.572 58.5939 114.471C59.5038 103.501 71.7878 105.198 71.7878 105.198L78.271 123.631Z" fill="#F55B5D"/>
<path d="M72.1288 123.858C71.7876 123.858 71.3326 123.632 71.3326 123.179C70.0814 117.977 64.6219 113.114 64.6219 113.114C64.2807 112.775 64.2807 112.21 64.5082 111.87C64.8494 111.531 65.4181 111.531 65.7593 111.757C65.9868 111.983 71.6738 116.959 73.0387 122.727C73.1524 123.179 72.8112 123.632 72.3563 123.745C72.3563 123.858 72.2425 123.858 72.1288 123.858Z" fill="#D1373F"/>
<path d="M69.9678 118.882C69.8541 118.882 69.7403 118.882 69.7403 118.882C67.3518 118.09 65.077 118.542 65.077 118.542C64.622 118.655 64.167 118.316 64.0533 117.864C63.9396 117.411 64.2808 116.959 64.7357 116.846C64.8495 116.846 67.4655 116.28 70.4228 117.185C70.8777 117.298 71.1052 117.864 70.9915 118.316C70.6503 118.655 70.309 118.882 69.9678 118.882Z" fill="#D1373F"/>
<path d="M126.725 123.631C133.322 132.679 147.425 126.572 146.402 114.471C145.492 103.501 133.208 105.198 133.208 105.198L126.725 123.631Z" fill="#C95F5D"/>
<path d="M132.867 123.857C132.753 123.857 132.753 123.857 132.639 123.857C132.184 123.744 131.843 123.292 131.957 122.84C133.322 117.072 139.009 112.096 139.236 111.87C139.577 111.53 140.146 111.53 140.487 111.983C140.828 112.322 140.828 112.888 140.373 113.227C140.373 113.227 134.914 118.09 133.663 123.292C133.549 123.631 133.208 123.857 132.867 123.857Z" fill="#D1373F"/>
<path d="M135.027 118.882C134.686 118.882 134.345 118.655 134.231 118.316C134.117 117.864 134.345 117.411 134.8 117.185C137.643 116.28 140.373 116.846 140.487 116.846C140.942 116.959 141.283 117.411 141.169 117.864C141.056 118.316 140.601 118.655 140.146 118.542C140.146 118.542 137.871 118.09 135.482 118.882C135.255 118.882 135.141 118.882 135.027 118.882Z" fill="#D1373F"/>
<path d="M69.0582 91.9665C69.0582 91.9665 65.8734 111.757 74.1765 130.983C81.6834 148.512 91.6926 153.94 102.384 154.166C114.441 154.393 139.805 147.381 135.824 90.2702C133.094 51.5932 72.2429 52.9503 69.0582 91.9665Z" fill="#C95F5D"/>
<path d="M83.2752 127.364C87.9237 127.364 91.692 125.642 91.692 123.519C91.692 121.395 87.9237 119.674 83.2752 119.674C78.6267 119.674 74.8584 121.395 74.8584 123.519C74.8584 125.642 78.6267 127.364 83.2752 127.364Z" fill="#C95F5D"/>
<path d="M125.246 127.364C129.894 127.364 133.663 125.642 133.663 123.519C133.663 121.395 129.894 119.674 125.246 119.674C120.597 119.674 116.829 121.395 116.829 123.519C116.829 125.642 120.597 127.364 125.246 127.364Z" fill="#BC5555"/>
<path d="M137.303 106.102C137.303 106.102 137.871 120.352 133.663 138.333C126.838 167.058 103.408 163.213 103.408 163.213C103.408 163.213 80.4323 167.058 73.6078 138.333C69.3994 120.465 67.4658 107.12 67.4658 107.12L72.8116 99.9956C72.8116 99.9956 75.4277 124.762 84.9819 128.947C84.9819 128.947 89.1903 122.501 103.408 128.494C117.398 122.614 122.175 128.947 122.175 128.947C131.729 124.649 132.526 100.9 132.526 100.9L137.303 106.102Z" fill="#19274B"/>
<path d="M76.2236 79.9787C76.2236 79.9787 78.4984 94.7936 72.1289 100.222V112.436L68.3755 113.567C68.3755 113.567 65.1908 97.1685 63.9396 88.1212C61.551 70.4791 78.2709 68.2173 78.2709 68.2173L76.2236 79.9787Z" fill="#19274B"/>
<path d="M128.431 79.9787C128.431 79.9787 126.156 94.7936 132.525 100.222V112.436L136.279 113.567C136.279 113.567 139.464 97.1685 140.715 88.1212C143.103 70.4791 126.497 68.2173 126.497 68.2173L128.431 79.9787Z" fill="#19274B"/>
<path d="M66.3278 79.0741C66.3278 79.0741 55.1812 59.5094 81.5691 52.3847C99.9951 47.2956 124.904 52.6109 132.866 39.6055C132.866 39.6055 135.141 48.5396 130.705 54.1941C130.705 54.1941 142.648 50.5752 146.06 43.5636C146.06 43.5636 150.155 54.5334 143.785 63.0152C143.785 63.0152 148.676 64.5985 153.112 61.2058C153.112 61.2058 152.657 85.1809 134.8 83.8238C134.8 83.8238 131.046 80.9966 124.449 78.961C117.966 76.9253 112.62 86.9904 95.5592 82.6929C80.4317 79.074 74.1759 76.6992 66.3278 79.0741Z" fill="#19274B"/>
<path d="M103.862 144.553C101.36 144.553 99.4264 143.649 99.3127 143.649C98.9715 143.536 98.744 143.083 98.9715 142.744C99.0852 142.405 99.5402 142.179 99.8814 142.405C99.9951 142.405 104.431 144.327 108.071 142.065C108.412 141.839 108.867 141.952 109.094 142.292C109.322 142.631 109.208 143.083 108.867 143.309C107.161 144.214 105.455 144.553 103.862 144.553Z" fill="#33476D"/>
<path d="M106.479 125.442C106.365 125.442 106.365 125.442 106.479 125.442L101.019 124.989C100.564 124.989 100.337 124.65 100.337 124.198C100.337 123.745 100.678 123.519 101.133 123.519L105.569 123.858L104.204 110.401C104.204 109.948 104.432 109.609 104.887 109.609C105.342 109.609 105.683 109.835 105.683 110.287L107.161 124.65C107.161 124.876 107.161 125.102 106.934 125.215C106.82 125.328 106.593 125.442 106.479 125.442Z" fill="#BC5555"/>
<path d="M92.375 132C98.972 133.018 105.569 133.471 114.554 131.661C114.554 131.661 113.758 141.161 103.18 141.161C94.1949 141.274 92.375 132 92.375 132Z" fill="#F5EFFF"/>
<path d="M91.9196 110.4C91.9196 112.888 90.7822 114.924 89.3035 114.924C87.9387 114.924 86.6875 112.888 86.6875 110.4C86.6875 107.912 87.8249 105.877 89.3035 105.877C90.7822 105.763 91.9196 107.799 91.9196 110.4Z" fill="#19274B"/>
<path d="M119.217 110.4C119.217 112.888 118.08 114.924 116.601 114.924C115.236 114.924 113.985 112.888 113.985 110.4C113.985 107.912 115.123 105.877 116.601 105.877C118.08 105.763 119.217 107.799 119.217 110.4Z" fill="#19274B"/>
<path d="M84.7543 100.335C86.5742 99.3172 89.1902 98.1863 91.6925 97.847C93.0574 97.6208 93.9673 96.2637 93.5124 95.0197L93.3986 94.7935C93.0574 93.8888 92.1475 93.2103 91.1238 93.3234C88.849 93.5495 84.7543 94.3412 82.1383 96.9423C81.5696 97.5077 81.3421 98.2994 81.5696 99.091C82.0246 100.448 83.6169 101.014 84.7543 100.335Z" fill="#19274B"/>
<path d="M121.265 100.335C119.445 99.3172 116.829 98.1863 114.327 97.847C112.962 97.6208 112.052 96.2637 112.507 95.0197L112.621 94.7935C112.962 93.8888 113.872 93.2103 114.896 93.3234C117.17 93.5495 121.265 94.3412 123.881 96.9423C124.45 97.5077 124.677 98.2994 124.45 99.091C123.995 100.448 122.402 101.014 121.265 100.335Z" fill="#19274B"/>
</g>
<g filter="url(#filter0_d_1796_5342)">
<ellipse cx="173.5" cy="180" rx="24.5" ry="24" fill="#363636"/>
<path d="M197.5 180C197.5 192.969 186.765 203.5 173.5 203.5C160.235 203.5 149.5 192.969 149.5 180C149.5 167.031 160.235 156.5 173.5 156.5C186.765 156.5 197.5 167.031 197.5 180Z" stroke="white"/>
</g>
<g clip-path="url(#clip0_1796_5342)">
<path d="M164.875 178.036H171.25C171.457 178.036 171.625 177.86 171.625 177.643V170.964C171.625 169.88 172.465 169 173.5 169C174.535 169 175.375 169.88 175.375 170.964V177.643C175.375 177.86 175.543 178.036 175.75 178.036H182.125C183.16 178.036 184 178.915 184 180C184 181.085 183.16 181.964 182.125 181.964H175.75C175.543 181.964 175.375 182.14 175.375 182.357V189.036C175.375 190.12 174.535 191 173.5 191C172.465 191 171.625 190.12 171.625 189.036V182.357C171.625 182.14 171.457 181.964 171.25 181.964H164.875C163.84 181.964 163 181.085 163 180C163 178.915 163.84 178.036 164.875 178.036Z" fill="white"/>
</g>
<defs>
<filter id="filter0_d_1796_5342" x="145" y="156" width="57" height="56" filterUnits="userSpaceOnUse" color-interpolation-filters="sRGB">
<feFlood flood-opacity="0" result="BackgroundImageFix"/>
<feColorMatrix in="SourceAlpha" type="matrix" values="0 0 0 0 0 0 0 0 0 0 0 0 0 0 0 0 0 0 127 0" result="hardAlpha"/>
<feOffset dy="4"/>
<feGaussianBlur stdDeviation="2"/>
<feColorMatrix type="matrix" values="0 0 0 0 0 0 0 0 0 0 0 0 0 0 0 0 0 0 0.06 0"/>
<feBlend mode="normal" in2="BackgroundImageFix" result="effect1_dropShadow_1796_5342"/>
<feBlend mode="normal" in="SourceGraphic" in2="effect1_dropShadow_1796_5342" result="shape"/>
</filter>
<clipPath id="clip0_1796_5342">
<rect width="21" height="22" fill="white" transform="matrix(-1 0 0 1 184 169)"/>
</clipPath>
</defs>
</svg>
